<svg width="92" height="92" viewBox="0 0 92 92" fill="none" xmlns="http://www.w3.org/2000/svg">
<g filter="url(#filter0_d_1_95)">
<path d="M68.25 14.7499C67.2611 14.7499 66.2944 15.0432 65.4721 15.5926C64.6499 16.142 64.009 16.9229 63.6306 17.8365C63.2522 18.7501 63.1531 19.7555 63.3461 20.7254C63.539 21.6953 64.0152 22.5862 64.7145 23.2855C65.4137 23.9847 66.3046 24.4609 67.2745 24.6538C68.2445 24.8468 69.2498 24.7478 70.1634 24.3693C71.077 23.9909 71.8579 23.35 72.4073 22.5278C72.9568 21.7055 73.25 20.7388 73.25 19.7499C73.25 18.4238 72.7232 17.1521 71.7855 16.2144C70.8478 15.2767 69.5761 14.7499 68.25 14.7499ZM87.4167 24.8333C87.3356 21.3762 86.6881 17.9558 85.5 14.7083C84.4405 11.9296 82.7916 9.41358 80.6667 7.33325C78.6034 5.19753 76.0815 3.55899 73.2917 2.54159C70.0527 1.31726 66.6285 0.65496 63.1667 0.583252C58.75 0.333252 57.3333 0.333252 46 0.333252C34.6667 0.333252 33.25 0.333252 28.8333 0.583252C25.3715 0.65496 21.9473 1.31726 18.7083 2.54159C15.9236 3.56929 13.4039 5.20642 11.3333 7.33325C9.19761 9.39649 7.55907 11.9184 6.54167 14.7083C5.31734 17.9472 4.65504 21.3714 4.58333 24.8333C4.33333 29.2499 4.33333 30.6666 4.33333 41.9999C4.33333 53.3333 4.33333 54.7499 4.58333 59.1666C4.65504 62.6284 5.31734 66.0526 6.54167 69.2916C7.55907 72.0814 9.19761 74.6033 11.3333 76.6666C13.4039 78.7934 15.9236 80.4305 18.7083 81.4582C21.9473 82.6826 25.3715 83.3449 28.8333 83.4166C33.25 83.6666 34.6667 83.6666 46 83.6666C57.3333 83.6666 58.75 83.6666 63.1667 83.4166C66.6285 83.3449 70.0527 82.6826 73.2917 81.4582C76.0815 80.4408 78.6034 78.8023 80.6667 76.6666C82.801 74.594 84.4514 72.0757 85.5 69.2916C86.6881 66.0441 87.3356 62.6237 87.4167 59.1666C87.4167 54.7499 87.6667 53.3333 87.6667 41.9999C87.6667 30.6666 87.6667 29.2499 87.4167 24.8333ZM79.9167 58.6666C79.8863 61.3115 79.4073 63.932 78.5 66.4166C77.8347 68.2299 76.7662 69.8684 75.375 71.2083C74.0235 72.5854 72.3884 73.6517 70.5833 74.3333C68.0988 75.2406 65.4782 75.7196 62.8333 75.7499C58.6667 75.9582 57.125 75.9999 46.1667 75.9999C35.2083 75.9999 33.6667 75.9999 29.5 75.7499C26.7537 75.8013 24.0191 75.3785 21.4167 74.4999C19.6908 73.7836 18.1306 72.7199 16.8333 71.3749C15.4504 70.0364 14.3952 68.3965 13.75 66.5832C12.7327 64.063 12.1685 61.383 12.0833 58.6666C12.0833 54.4999 11.8333 52.9583 11.8333 41.9999C11.8333 31.0416 11.8333 29.4999 12.0833 25.3333C12.102 22.6293 12.5956 19.9497 13.5417 17.4166C14.2752 15.6579 15.4011 14.0902 16.8333 12.8333C18.0992 11.4006 19.6637 10.2628 21.4167 9.49992C23.9565 8.58343 26.6333 8.10442 29.3333 8.08325C33.5 8.08325 35.0417 7.83325 46 7.83325C56.9583 7.83325 58.5 7.83325 62.6667 8.08325C65.3115 8.11359 67.9321 8.59261 70.4167 9.49992C72.3101 10.2026 74.0096 11.3451 75.375 12.8333C76.7404 14.1132 77.8073 15.678 78.5 17.4166C79.426 19.9538 79.9054 22.6323 79.9167 25.3333C80.125 29.4999 80.1667 31.0416 80.1667 41.9999C80.1667 52.9583 80.125 54.4999 79.9167 58.6666ZM46 20.6249C41.7742 20.6332 37.6457 21.8938 34.1361 24.2475C30.6264 26.6012 27.8932 29.9424 26.2818 33.8489C24.6704 37.7554 24.253 42.0519 25.0825 46.1955C25.9119 50.3391 27.951 54.1438 30.942 57.129C33.933 60.1142 37.7417 62.1458 41.8869 62.9672C46.0321 63.7886 50.3278 63.3629 54.2311 61.7438C58.1345 60.1248 61.4703 57.3851 63.8172 53.8709C66.1641 50.3567 67.4167 46.2257 67.4167 41.9999C67.4222 39.1879 66.8717 36.4024 65.7968 33.8039C64.722 31.2054 63.144 28.845 61.1536 26.8585C59.1633 24.872 56.7998 23.2986 54.1992 22.2288C51.5985 21.159 48.812 20.6139 46 20.6249ZM46 55.8749C43.2558 55.8749 40.5732 55.0612 38.2915 53.5366C36.0097 52.012 34.2313 49.845 33.1812 47.3096C32.131 44.7743 31.8562 41.9845 32.3916 39.293C32.927 36.6016 34.2484 34.1293 36.1889 32.1888C38.1293 30.2484 40.6016 28.9269 43.2931 28.3915C45.9846 27.8562 48.7744 28.1309 51.3097 29.1811C53.8451 30.2313 56.012 32.0096 57.5366 34.2914C59.0612 36.5731 59.875 39.2557 59.875 41.9999C59.875 43.822 59.5161 45.6263 58.8188 47.3096C58.1215 48.993 57.0995 50.5226 55.8111 51.811C54.5227 53.0994 52.9931 54.1215 51.3097 54.8187C49.6263 55.516 47.8221 55.8749 46 55.8749Z" fill="white"/>
</g>
<defs>
<filter id="filter0_d_1_95" x="0.333332" y="0.333252" width="91.3333" height="91.3333" filterUnits="userSpaceOnUse" color-interpolation-filters="sRGB">
<feFlood flood-opacity="0" result="BackgroundImageFix"/>
<feColorMatrix in="SourceAlpha" type="matrix" values="0 0 0 0 0 0 0 0 0 0 0 0 0 0 0 0 0 0 127 0" result="hardAlpha"/>
<feOffset dy="4"/>
<feGaussianBlur stdDeviation="2"/>
<feComposite in2="hardAlpha" operator="out"/>
<feColorMatrix type="matrix" values="0 0 0 0 0 0 0 0 0 0 0 0 0 0 0 0 0 0 0.25 0"/>
<feBlend mode="normal" in2="BackgroundImageFix" result="effect1_dropShadow_1_95"/>
<feBlend mode="normal" in="SourceGraphic" in2="effect1_dropShadow_1_95" result="shape"/>
</filter>
</defs>
</svg>
